<svg width="90" height="22" viewBox="0 0 90 22" fill="none" xmlns="http://www.w3.org/2000/svg">
<path d="M15.5684 15.6543C15.5684 13.7285 14.528 12.1569 12.4473 10.9395C12.0931 10.7181 10.8424 10.1094 8.69531 9.11328C6.76953 8.22786 5.56315 7.32031 5.07617 6.39062C4.83268 5.94792 4.71094 5.44987 4.71094 4.89648C4.71094 3.50195 5.38607 2.53906 6.73633 2.00781C7.28971 1.80859 7.88737 1.70898 8.5293 1.70898C10.3665 1.70898 11.7611 2.36198 12.7129 3.66797C13.3105 4.53125 13.6094 5.57161 13.6094 6.78906H14.7383V0.912109C14.1406 0.912109 13.7975 1.11133 13.709 1.50977C13.6868 1.66471 13.6758 1.8418 13.6758 2.04102C11.9935 1.17773 10.1562 0.746094 8.16406 0.746094C5.6849 0.746094 3.78125 1.42122 2.45312 2.77148C1.54557 3.67904 1.0918 4.76367 1.0918 6.02539C1.0918 7.88477 2.13216 9.41211 4.21289 10.6074C4.54492 10.8066 5.78451 11.4043 7.93164 12.4004C9.87956 13.3301 11.1081 14.2598 11.6172 15.1895C11.8607 15.6543 11.9824 16.1634 11.9824 16.7168C11.9824 18.2663 11.2741 19.3509 9.85742 19.9707C9.19336 20.2585 8.47396 20.4023 7.69922 20.4023C4.88802 20.4023 3.11719 18.9746 2.38672 16.1191C2.20964 15.4993 2.09896 14.8353 2.05469 14.127H0.925781V21.0664C1.47917 21.0664 1.8112 20.9004 1.92188 20.5684C1.96615 20.3691 1.98828 20.0592 1.98828 19.6387C3.67057 20.7676 5.65169 21.332 7.93164 21.332C10.5879 21.332 12.6354 20.6348 14.0742 19.2402C15.0703 18.2441 15.5684 17.0488 15.5684 15.6543ZM33.8234 21C33.8234 20.513 33.6464 20.2363 33.2922 20.1699C33.1815 20.1478 33.0708 20.1367 32.9602 20.1367H31.1672V12.3008L32.6613 10.9395L39.8996 21H45.2121C45.2121 20.513 45.035 20.2363 44.6809 20.1699C44.5702 20.1478 44.4595 20.1367 44.3488 20.1367H43.6848L35.2512 8.54883L40.7961 3.40234C41.7258 2.58333 42.3788 2.11849 42.7551 2.00781C42.9543 1.96354 43.1535 1.94141 43.3527 1.94141C43.8618 1.94141 44.1385 1.76432 44.1828 1.41016C44.2049 1.29948 44.216 1.1888 44.216 1.07812H38.173V1.94141H40.8293L31.1672 10.7734V1.94141H33.8234V1.07812H24.9582V1.94141H27.6145V20.1367H24.9582V21H33.8234ZM61.9398 21C61.9398 20.513 61.7628 20.2363 61.4086 20.1699C61.2979 20.1478 61.1872 20.1367 61.0766 20.1367H59.2836V1.94141H61.9398V1.07812H53.0746V1.94141H55.7309V20.1367H53.0746V21H61.9398ZM80.6266 21.166L87.5328 1.94141H89.193V1.07812H83.5816V1.94141H86.2379L80.8922 17.0156L75.0152 1.94141H77.6715V1.07812H69.5699V1.94141H71.4293L77.8707 18.6094C78.3798 19.9375 78.7893 20.7122 79.0992 20.9336C79.3427 21.0885 79.6858 21.166 80.1285 21.166H80.6266Z" fill="#887569"/>
</svg>
