<svg width="36" height="36" viewBox="0 0 36 36" fill="none" xmlns="http://www.w3.org/2000/svg">
<rect width="36" height="36" rx="8" fill="#C5A996"/>
<path d="M20.5005 5H15.4995C10.2615 5 6 9.38131 6 14.7668V19.3996C6 23.4101 8.3965 27.0145 12 28.4825V31.4858C12 31.6894 12.1165 31.8735 12.2975 31.9558C12.3625 31.9856 12.4315 32 12.5 32C12.6215 32 12.742 31.9542 12.8355 31.8668L15.735 29.1664H20.5005C25.7385 29.1664 30 24.7851 30 19.3996V14.7668C30 9.38131 25.7385 5 20.5005 5ZM29 19.6757C29 24.4941 25.1875 28.1262 20.5005 28.1262H15.4995C15.3755 28.1262 15.4995 28.1262 14.5 28.1262L13 30.3264V28.1262C13 27.9082 12.2 27.2477 12 27.1757C8.611 25.9432 7.28125 23.097 7.28125 19.3996L7.21875 16.6757L7.28125 14.6757C7.28125 9.85734 10.813 6.1757 15.4995 6.1757H20.5005C25.1875 6.1757 29 9.85734 29 14.6757V19.6757Z" fill="white"/>
<path d="M24.7742 20.6851L21.729 18.7984C21.3961 18.5919 20.9997 18.5219 20.6117 18.5985C20.2233 18.6765 19.8893 18.8953 19.6728 19.2143L19.5296 19.4242C18.2117 19.0087 16.7585 18.478 15.8884 16.0757L16.2486 15.777C16.867 15.2642 16.9319 14.3672 16.3943 13.7764L14.0121 11.1624C13.8327 10.9653 13.5196 10.945 13.313 11.1156L11.8172 12.3558C10.5052 13.4437 11.1181 15.053 11.3197 15.5818C11.3286 15.6055 11.3395 15.6281 11.3524 15.6504C11.4044 15.7392 12.6466 17.8537 14.6527 19.8027C16.6668 21.7598 20.3031 23.5671 20.4145 23.6195C20.8298 23.8766 21.297 24 21.7593 24C22.5708 24 23.3666 23.6205 23.8412 22.9248L24.9203 21.3397C25.069 21.1199 25.0036 20.8274 24.7742 20.6851ZM22.7798 22.4064C22.3334 23.0624 21.6408 23.2519 20.9125 22.8038C20.8763 22.7859 17.3103 20.6487 15.4062 18.7984C13.6265 17.0691 12.4408 15.3313 12.2798 15.0634C11.8874 14.0137 11.9144 13.8649 12.4673 13.4064L13.5 12.3558L15.6466 14.3965C15.8295 14.5969 15.8082 14.8899 15.5991 15.0634L14.9911 15.5672C14.843 15.6901 14.7845 15.8843 14.8425 16.0629C15.879 19.2758 17.8946 19.9067 19.3661 20.3675L19.5807 20.4351C19.7952 20.5041 20.0301 20.4252 20.1529 20.2446L20.5042 19.7285C20.5766 19.6217 20.6876 19.5494 20.8164 19.5234C20.9457 19.4969 21.0775 19.5215 21.1895 19.591L23.8194 21.2201L22.7798 22.4064Z" fill="white"/>
</svg>
