<svg width="22" height="19" viewBox="0 0 22 19" fill="none" xmlns="http://www.w3.org/2000/svg">
<path d="M10.9297 18.2942L10.9297 18.2942L10.9252 18.2906C6.74411 14.9259 4.131 12.6848 2.55818 10.8172C1.01192 8.98119 0.5 7.54069 0.5 5.75758C0.5 2.84042 2.85899 0.5 5.82353 0.5C8.25301 0.5 9.61419 1.82937 10.6282 2.95719L11 3.37075L11.3718 2.95719C12.3858 1.82937 13.747 0.5 16.1765 0.5C19.141 0.5 21.5 2.84042 21.5 5.75758C21.5 7.54069 20.9881 8.98119 19.4418 10.8172C17.869 12.6848 15.2559 14.9259 11.0748 18.2906L11.0747 18.2906L11.0703 18.2942L11 18.3522L10.9297 18.2942Z" stroke="#887569"/>
</svg>
